HIERARCHY
ROOT Hips
{
	OFFSET 0.000000 0.000000 0.000000
	CHANNELS 6 Xposition Yposition Zposition Xrotation Yrotation Zrotation
	JOINT LeftUpLeg_virtual
	{
		OFFSET 0.000000 0.000000 0.000000
		CHANNELS 3 Xrotation Yrotation Zrotation
		JOINT LeftUpLeg
		{
			OFFSET 15.427100 -6.655098 0.678600
			CHANNELS 3 Xrotation Yrotation Zrotation
			JOINT LeftLeg
			{
				OFFSET 4.081073 -39.591068 13.024000
				CHANNELS 3 Xrotation Yrotation Zrotation
				JOINT LeftFoot
				{
					OFFSET -4.081074 -37.707932 -15.979700
					CHANNELS 3 Xrotation Yrotation Zrotation
					JOINT LeftToeBase
					{
						OFFSET 5.346399 -15.068900 20.645000
						CHANNELS 3 Xrotation Yrotation Zrotation
						JOINT LeftToe_End
						{
							OFFSET 2.754700 0.931300 11.300900
							CHANNELS 3 Xrotation Yrotation Zrotation
							End Site
							{
								OFFSET 0 0 0
							}
						}
					}
				}
			}
		}
	}
	JOINT RightUpLeg_virtual
	{
		OFFSET 0.000000 0.000000 0.000000
		CHANNELS 3 Xrotation Yrotation Zrotation
		JOINT RightUpLeg
		{
			OFFSET -15.569500 -6.655098 0.678600
			CHANNELS 3 Xrotation Yrotation Zrotation
			JOINT RightLeg
			{
				OFFSET -4.081825 -39.591045 13.023800
				CHANNELS 3 Xrotation Yrotation Zrotation
				JOINT RightFoot
				{
					OFFSET 4.081824 -37.707954 -15.979600
					CHANNELS 3 Xrotation Yrotation Zrotation
					JOINT RightToeBase
					{
						OFFSET -5.346400 -15.068900 20.645000
						CHANNELS 3 Xrotation Yrotation Zrotation
						JOINT RightToe_End
						{
							OFFSET -2.754700 0.931300 11.300900
							CHANNELS 3 Xrotation Yrotation Zrotation
							End Site
							{
								OFFSET 0 0 0
							}
						}
					}
				}
			}
		}
	}
	JOINT Spine_virtual
	{
		OFFSET 0.000000 0.000000 0.000000
		CHANNELS 3 Xrotation Yrotation Zrotation
		JOINT Spine
		{
			OFFSET -0.279200 12.230698 -2.892100
			CHANNELS 3 Xrotation Yrotation Zrotation
			JOINT Spine1
			{
				OFFSET -0.232667 10.192268 -1.242267
				CHANNELS 3 Xrotation Yrotation Zrotation
				JOINT Spine1_split
				{
					OFFSET -0.232667 10.192268 -1.242267
					CHANNELS 3 Xrotation Yrotation Zrotation
					JOINT Spine2
					{
						OFFSET -0.232667 10.192268 -1.242267
						CHANNELS 3 Xrotation Yrotation Zrotation
						JOINT Neck_virtual
						{
							OFFSET 0.000000 0.000000 0.000000
							CHANNELS 3 Xrotation Yrotation Zrotation
							JOINT Neck
							{
								OFFSET -0.418800 17.814194 8.416900
								CHANNELS 3 Xrotation Yrotation Zrotation
								JOINT Head
								{
									OFFSET 0.000000 7.031097 3.806800
									CHANNELS 3 Xrotation Yrotation Zrotation
									JOINT HeadTop_End
									{
										OFFSET 0.000000 24.646606 12.978600
										CHANNELS 3 Xrotation Yrotation Zrotation
										End Site
										{
											OFFSET 0 0 0
										}
									}
								}
							}
						}
						JOINT LeftShoulder_virtual
						{
							OFFSET 0.000000 0.000000 0.000000
							CHANNELS 3 Xrotation Yrotation Zrotation
							JOINT LeftShoulder
							{
								OFFSET 8.476499 7.247704 -3.868750
								CHANNELS 3 Xrotation Yrotation Zrotation
								JOINT LeftShoulder_split
								{
									OFFSET 8.476499 7.247704 -3.868750
									CHANNELS 3 Xrotation Yrotation Zrotation
									JOINT LeftArm
									{
										OFFSET 9.308998 -2.777710 0.208600
										CHANNELS 3 Xrotation Yrotation Zrotation
										JOINT LeftForeArm
										{
											OFFSET 29.972298 0.000000 0.000000
											CHANNELS 3 Xrotation Yrotation Zrotation
											JOINT LeftHand
											{
												OFFSET 26.026505 0.000000 0.000000
												CHANNELS 3 Xrotation Yrotation Zrotation
												End Site
												{
													OFFSET 0 0 0
												}
											}
										}
									}
								}
							}
						}
						JOINT RightShoulder_virtual
						{
							OFFSET 0.000000 0.000000 0.000000
							CHANNELS 3 Xrotation Yrotation Zrotation
							JOINT RightShoulder
							{
								OFFSET -7.570500 7.247704 -3.868750
								CHANNELS 3 Xrotation Yrotation Zrotation
								JOINT RightShoulder_split
								{
									OFFSET -7.570500 7.247704 -3.868750
									CHANNELS 3 Xrotation Yrotation Zrotation
									JOINT RightArm
									{
										OFFSET -9.308998 -2.777710 0.208500
										CHANNELS 3 Xrotation Yrotation Zrotation
										JOINT RightForeArm
										{
											OFFSET -29.972300 0.000000 0.000000
											CHANNELS 3 Xrotation Yrotation Zrotation
											JOINT RightHand
											{
												OFFSET -26.026505 0.000000 0.000000
												CHANNELS 3 Xrotation Yrotation Zrotation
												End Site
												{
													OFFSET 0 0 0
												}
											}
										}
									}
								}
							}
						}
					}
				}
			}
		}
	}
}
MOTION
Frames: 6
Frame Time: 0.03333333
1.674200 6.756378 -3.181446 0.000000 0.000000 0.000000 -90.610703 -3.345776 -1.692202 -20.825959 11.567333 -3.668328 28.763276 -8.287304 -8.874641 1.620458 7.134644 5.912871 9.754152 -0.456064 2.409431 0.000000 0.000000 0.000000 -92.042721 -3.944811 -5.174328 -4.462972 -6.596666 -6.894245 12.501142 2.469713 9.888317 8.527549 -5.485749 26.747238 -0.434966 -0.214305 1.392672 0.000000 0.000000 0.000000 -88.400925 -3.958092 -4.664735 4.576154 2.740274 1.177684 -1.176269 1.081713 -0.055549 0.389670 0.777112 -0.290885 0.000000 0.000000 0.000000 -1.862173 0.494068 0.238516 2.601378 0.862360 -0.191709 10.432628 -5.061745 10.256767 0.000000 0.000000 0.000000 -2.611041 1.081517 0.185053 0.993428 -13.948751 -3.591632 -2.783710 -0.036797 -4.107155 27.377772 0.144918 -68.999527 -178.856481 -39.077230 -178.212230 0.000000 0.000000 0.000000 -1.840171 0.778057 -0.740709 0.955818 1.999297 0.587677 1.206327 4.255666 0.262905 11.885382 7.193717 73.174275 -179.755785 46.358277 -179.324977 0.000000 0.000000 0.000000 
1.674706 6.755402 -3.180679 0.000000 0.000000 0.000000 -90.609460 -3.346021 -1.692114 -20.828312 11.565167 -3.669943 28.765861 -8.286316 -8.874399 1.621441 7.134880 5.911098 9.753943 -0.456253 2.408690 0.000000 0.000000 0.000000 -92.039879 -3.942191 -5.170527 -4.462975 -6.600376 -6.895543 12.498328 2.470142 9.889480 8.529238 -5.487556 26.745211 -0.436595 -0.214655 1.393202 0.000000 0.000000 0.000000 -88.400113 -3.959175 -4.666666 4.577497 2.739643 1.177219 -1.178158 1.081446 -0.055607 0.391021 0.784779 -0.292237 0.000000 0.000000 0.000000 -1.863527 0.493178 0.237901 2.597857 0.861739 -0.192459 10.434416 -5.061134 10.254096 0.000000 0.000000 0.000000 -2.614389 1.081780 0.184198 0.995403 -13.948607 -3.585197 -2.787051 -0.037078 -4.116456 27.380323 0.151362 -69.008297 -178.852438 -39.065639 -178.207818 0.000000 0.000000 0.000000 -1.841772 0.777822 -0.741193 0.953544 1.996575 0.583481 1.216230 4.261691 0.261500 11.893081 7.191274 73.173804 -179.756864 46.340627 -179.324964 0.000000 0.000000 0.000000 
1.674852 6.753456 -3.179382 0.000000 0.000000 0.000000 -90.606578 -3.345346 -1.691738 -20.833762 11.563908 -3.670994 28.773313 -8.285026 -8.874596 1.621187 7.135057 5.910850 9.754001 -0.456191 2.409068 0.000000 0.000000 0.000000 -92.035365 -3.938402 -5.166037 -4.463849 -6.607714 -6.896496 12.495441 2.468489 9.890847 8.529507 -5.493520 26.738124 -0.434357 -0.215205 1.395156 0.000000 0.000000 0.000000 -88.398405 -3.960832 -4.669426 4.577536 2.737048 1.178475 -1.180405 1.080880 -0.056878 0.390037 0.790536 -0.294171 0.000000 0.000000 0.000000 -1.863856 0.492827 0.236061 2.597023 0.863044 -0.190341 10.435267 -5.062199 10.255885 0.000000 0.000000 0.000000 -2.617581 1.082170 0.183355 0.998702 -13.948676 -3.564609 -2.788468 -0.035314 -4.124792 27.386279 0.164374 -69.026862 -178.847902 -39.048939 -178.204171 0.000000 0.000000 0.000000 -1.844204 0.777186 -0.742379 0.951252 1.990467 0.576249 1.228925 4.274186 0.261707 11.903249 7.191105 73.175122 -179.755225 46.323357 -179.324595 0.000000 0.000000 0.000000 
1.674849 6.750824 -3.177902 0.000000 0.000000 0.000000 -90.602186 -3.344693 -1.691390 -20.840447 11.563264 -3.671921 28.783397 -8.283495 -8.874461 1.619624 7.135416 5.911323 9.753282 -0.455944 2.410592 0.000000 0.000000 0.000000 -92.029088 -3.933978 -5.161174 -4.466525 -6.617806 -6.897608 12.492703 2.466348 9.892536 8.530145 -5.501542 26.729146 -0.428737 -0.215765 1.397730 0.000000 0.000000 0.000000 -88.396110 -3.962575 -4.672007 4.575578 2.732857 1.181226 -1.182907 1.079956 -0.058599 0.388992 0.793607 -0.294745 0.000000 0.000000 0.000000 -1.863086 0.493195 0.233823 2.598991 0.865994 -0.186461 10.433208 -5.066263 10.261907 0.000000 0.000000 0.000000 -2.620484 1.083010 0.183166 1.002234 -13.946856 -3.538037 -2.792114 -0.033904 -4.129506 27.392755 0.180036 -69.046826 -178.843927 -39.034681 -178.201001 0.000000 0.000000 0.000000 -1.847402 0.776421 -0.743588 0.949100 1.982499 0.568566 1.241424 4.289339 0.263179 11.914479 7.191115 73.174904 -179.750799 46.311367 -179.324704 0.000000 0.000000 0.000000 
1.674573 6.747826 -3.176785 0.000000 0.000000 0.000000 -90.596005 -3.344712 -1.691233 -20.846135 11.562737 -3.673207 28.793127 -8.281614 -8.873490 1.616476 7.136036 5.912512 9.751056 -0.455597 2.412848 0.000000 0.000000 0.000000 -92.021342 -3.929759 -5.156237 -4.471196 -6.629467 -6.898561 12.489874 2.465508 9.894240 8.531525 -5.509637 26.721169 -0.422330 -0.216327 1.399927 0.000000 0.000000 0.000000 -88.392750 -3.964317 -4.673707 4.571615 2.727759 1.185639 -1.185758 1.078946 -0.059876 0.390446 0.791616 -0.293733 0.000000 0.000000 0.000000 -1.861447 0.494484 0.232294 2.602428 0.870169 -0.182292 10.425552 -5.072269 10.270647 0.000000 0.000000 0.000000 -2.622682 1.084525 0.184123 1.005100 -13.939369 -3.515434 -2.797120 -0.035860 -4.134061 27.397429 0.193348 -69.058643 -178.841168 -39.026331 -178.198461 0.000000 0.000000 0.000000 -1.850651 0.775950 -0.744015 0.947271 1.975546 0.562621 1.250824 4.306907 0.263025 11.924364 7.190209 73.170048 -179.744132 46.305226 -179.325852 0.000000 0.000000 0.000000 
1.674434 6.744820 -3.176304 0.000000 0.000000 0.000000 -90.588649 -3.345454 -1.691044 -20.849608 11.562184 -3.675209 28.799499 -8.278899 -8.871453 1.611306 7.137186 5.915229 9.749123 -0.455231 2.414799 0.000000 0.000000 0.000000 -92.013617 -3.926968 -5.152196 -4.476436 -6.641310 -6.899101 12.486840 2.466416 9.895427 8.532784 -5.517743 26.714842 -0.415883 -0.216904 1.401181 0.000000 0.000000 0.000000 -88.388255 -3.966193 -4.674170 4.566166 2.722687 1.191676 -1.188989 1.078285 -0.059778 0.393778 0.786647 -0.290216 0.000000 0.000000 0.000000 -1.859202 0.496495 0.232386 2.605571 0.875131 -0.179174 10.411338 -5.080367 10.281011 0.000000 0.000000 0.000000 -2.624678 1.086927 0.186344 1.006148 -13.924272 -3.506837 -2.805611 -0.041942 -4.138370 27.399659 0.204791 -69.054565 -178.840280 -39.026857 -178.196152 0.000000 0.000000 0.000000 -1.853902 0.776069 -0.743223 0.946318 1.972689 0.559492 1.256903 4.325198 0.262511 11.931882 7.188413 73.159003 -179.736237 46.300814 -179.327873 0.000000 0.000000 0.000000 
